<svg id="body" data-name="body" xmlns="http://www.w3.org/2000/svg" viewBox="0 0 65.31 63.58">
  <defs>
    <style>
      .bodycls-1, .bodycls-4 {
        fill: #fff;
      }

      .bodycls-1, .bodycls-2, .bodycls-3, .bodycls-4, .bodycls-5 {
        stroke: #231f20;
        stroke-miterlimit: 10;
      }

      .bodycls-1, .bodycls-3, .bodycls-5 {
        stroke-width: 0.5px;
      }

      .bodycls-2, .bodycls-5 {
        fill: none;
      }

      .bodycls-2, .bodycls-4 {
        stroke-width: 0.1px;
      }

      .bodycls-3 {
        fill: #231f20;
      }
    </style>
  </defs>
  <title>body</title>
  <path id="body" class="bodycls-1" d="M74.66,75.14H25.34a.84.84,0,0,1-.81-.9l2.58-46.1a.83.83,0,0,1,.76-.8l44.42-2.48a.83.83,0,0,1,.84.81l2.34,48.57A.84.84,0,0,1,74.66,75.14Z" transform="translate(-17.6 -20.86)"/>
  <polygon id="neck" class="bodycls-1" points="39.86 4.83 23.82 5.65 24.09 0.25 39.36 0.25 39.86 4.83"/>
  <circle id="rivet" class="bodycls-2" cx="11.26" cy="8.16" r="0.88"/>
  <circle id="rivet-2" data-name="rivet" class="bodycls-2" cx="10.65" cy="17.3" r="0.88"/>
  <circle id="rivet-3" data-name="rivet" class="bodycls-2" cx="21.65" cy="7.42" r="0.88"/>
  <circle id="rivet-4" data-name="rivet" class="bodycls-2" cx="53.9" cy="5.65" r="0.88"/>
  <circle id="rivet-5" data-name="rivet" class="bodycls-2" cx="8.54" cy="52.69" r="0.88"/>
  <circle id="rivet-6" data-name="rivet" class="bodycls-2" cx="56.22" cy="52.69" r="0.88"/>
  <circle id="rivet-7" data-name="rivet" class="bodycls-2" cx="42.24" cy="6.27" r="0.88"/>
  <circle id="rivet-8" data-name="rivet" class="bodycls-2" cx="32.02" cy="6.92" r="0.88"/>
  <circle id="rivet-9" data-name="rivet" class="bodycls-2" cx="19.9" cy="52.69" r="0.88"/>
  <circle id="rivet-10" data-name="rivet" class="bodycls-2" cx="44.07" cy="52.69" r="0.88"/>
  <circle id="rivet-11" data-name="rivet" class="bodycls-2" cx="31.53" cy="52.69" r="0.88"/>
  <circle id="rivet-12" data-name="rivet" class="bodycls-2" cx="54.51" cy="15.89" r="0.88"/>
  <circle id="rivet-13" data-name="rivet" class="bodycls-2" cx="9.24" cy="41.08" r="0.88"/>
  <circle id="rivet-14" data-name="rivet" class="bodycls-2" cx="9.93" cy="29.14" r="0.88"/>
  <circle id="rivet-15" data-name="rivet" class="bodycls-2" cx="54.99" cy="28.29" r="0.88"/>
  <circle id="rivet-16" data-name="rivet" class="bodycls-2" cx="55.68" cy="40.85" r="0.88"/>
  <rect id="controlPanel" class="bodycls-2" x="30.43" y="30.87" width="39.5" height="9.44" transform="translate(-18.85 -19.03) rotate(-2.06)"/>
  <rect id="buttonOne" class="bodycls-3" x="32.48" y="34.58" width="2.02" height="2.02" transform="translate(-18.86 -19.63) rotate(-2.06)"/>
  <rect id="buttonTwo" class="bodycls-3" x="36.79" y="34.43" width="2.02" height="2.02" transform="translate(-18.85 -19.47) rotate(-2.06)"/>
  <rect id="buttonThree" class="bodycls-3" x="41.06" y="34.27" width="2.02" height="2.02" transform="translate(-18.84 -19.32) rotate(-2.06)"/>
  <line id="slideTrack" class="bodycls-2" x1="35.65" y1="14.43" x2="50.07" y2="13.89"/>
  <rect id="slider" class="bodycls-4" x="48.07" y="12.41" width="0.62" height="3.08"/>
  <path id="rightShoulder" class="bodycls-5" d="M82.05,40H74.33a.46.46,0,0,1-.45-.42l-.6-11a.44.44,0,0,1,.44-.47h4.65a.4.4,0,0,1,.24.07l2.55,1.64a.43.43,0,0,1,.18.22l1.13,3.13a.4.4,0,0,1,0,.15v6.23A.45.45,0,0,1,82.05,40Z" transform="translate(-17.6 -20.86)"/>
  <path id="leftShoulder" class="bodycls-5" d="M26.36,41.54H18.3a.45.45,0,0,1-.45-.45V34.64a.52.52,0,0,1,0-.21l.91-2.58a.48.48,0,0,1,.15-.22L21,29.77a.42.42,0,0,1,.3-.12H27Z" transform="translate(-17.6 -20.86)"/>
  <rect id="waist" class="bodycls-1" x="8.54" y="54.28" width="48.02" height="8.53" rx="0.49" ry="0.49"/>
  <g id="leftArm">
    <rect class="bodycls-1" x="0.7" y="20.57" width="7.67" height="13.17"/>
    <rect class="bodycls-1" x="0.26" y="33.74" width="8.55" height="1.4" rx="0.7" ry="0.7"/>
    <rect class="bodycls-1" x="0.26" y="35.14" width="8.55" height="1.4" rx="0.7" ry="0.7"/>
    <rect class="bodycls-1" x="0.26" y="36.53" width="8.55" height="1.4" rx="0.7" ry="0.7"/>
    <polygon class="bodycls-1" points="8.58 48.9 2.19 49.18 0.8 38.06 8.19 37.99 8.58 48.9"/>
    <rect class="bodycls-1" x="19.54" y="69.96" width="7.05" height="0.96" rx="0.48" ry="0.48" transform="matrix(1, -0.07, 0.07, 1, -22.44, -19.08)"/>
    <rect class="bodycls-1" x="19.6" y="70.88" width="7.05" height="0.96" rx="0.48" ry="0.48" transform="translate(-22.51 -19.08) rotate(-3.99)"/>
    <rect class="bodycls-1" x="19.67" y="71.87" width="7.05" height="0.96" rx="0.48" ry="0.48" transform="translate(-22.58 -19.07) rotate(-3.99)"/>
    <path class="bodycls-1" d="M29.53,78.43a6.16,6.16,0,0,1-.72,3.11c-.61.91-4.68-7.35-5.68-6.88s1.39,9.58.39,9.53a6,6,0,0,1-3.17-1.12,6.09,6.09,0,0,1-1.73-2.76,5.35,5.35,0,0,1-.74-2.41,5.94,5.94,0,0,1,1-2.56C19.4,74.36,19.89,73,21,73c1.41-.08,2-.18,3.12-.19a5.17,5.17,0,0,1,2.33.08,5.65,5.65,0,0,1,1.6,1.27,6.22,6.22,0,0,1,1.4,2.07A5.4,5.4,0,0,1,29.53,78.43Z" transform="translate(-17.6 -20.86)"/>
    <circle id="rivet-17" data-name="rivet" class="bodycls-2" cx="3.54" cy="53.81" r="0.67"/>
    <circle id="rivet-18" data-name="rivet" class="bodycls-2" cx="4.69" cy="61.71" r="0.67"/>
    <circle id="rivet-19" data-name="rivet" class="bodycls-2" cx="10.62" cy="55.99" r="0.67"/>
  </g>
  <g id="rightArm">
    <rect class="bodycls-1" x="56.45" y="19.17" width="7.67" height="12.7"/>
    <rect class="bodycls-1" x="56.02" y="31.48" width="8.55" height="1.4" rx="0.7" ry="0.7"/>
    <rect class="bodycls-1" x="56.02" y="32.88" width="8.55" height="1.4" rx="0.7" ry="0.7"/>
    <rect class="bodycls-1" x="56.02" y="34.27" width="8.55" height="1.4" rx="0.7" ry="0.7"/>
    <polygon class="bodycls-1" points="62.94 49.26 56.56 48.87 56.71 35.67 64.17 35.67 62.94 49.26"/>
    <rect class="bodycls-1" x="73.83" y="69.95" width="7.05" height="0.96" rx="0.48" ry="0.48" transform="translate(-11.68 -26.85) rotate(4.61)"/>
    <rect class="bodycls-1" x="73.75" y="70.86" width="7.05" height="0.96" rx="0.48" ry="0.48" transform="translate(-11.61 -26.84) rotate(4.61)"/>
    <rect class="bodycls-1" x="73.67" y="71.85" width="7.05" height="0.96" rx="0.48" ry="0.48" transform="translate(-11.53 -26.83) rotate(4.61)"/>
    <path class="bodycls-1" d="M70.81,78.34a6,6,0,0,0,.68,3.1c.61.93,4.88-7.22,5.9-6.74.85.41-1.59,9.51-.58,9.47a6.06,6.06,0,0,0,3.24-1,5.92,5.92,0,0,0,1.81-2.71,5.23,5.23,0,0,0,.8-2.39,5.78,5.78,0,0,0-.93-2.56c-.55-1-1-2.31-2.16-2.4-1.44-.12-2.06-.22-3.17-.25a5.33,5.33,0,0,0-2.36,0,5.64,5.64,0,0,0-1.66,1.24,6.12,6.12,0,0,0-1.46,2A5.29,5.29,0,0,0,70.81,78.34Z" transform="translate(-17.6 -20.86)"/>
    <ellipse id="rivet-20" data-name="rivet" class="bodycls-2" cx="61.81" cy="53.89" rx="0.68" ry="0.67"/>
    <ellipse id="rivet-21" data-name="rivet" class="bodycls-2" cx="60.5" cy="61.73" rx="0.68" ry="0.67"/>
    <ellipse id="rivet-22" data-name="rivet" class="bodycls-2" cx="54.57" cy="55.93" rx="0.68" ry="0.67"/>
  </g>
</svg>
