<svg version="1.0" xmlns="http://www.w3.org/2000/svg"
 width="1024.000000pt" height="1024.000000pt" viewBox="0 0 1024.000000 1024.000000"
 preserveAspectRatio="xMidYMid meet">
<g transform="translate(0.000000,1024.000000) scale(0.100000,-0.100000)"
fill="#000000" stroke="none">
<path d="M4735 10094 c-47 -24 -74 -55 -84 -93 -5 -20 -17 -110 -26 -201 -23
-236 -33 -248 -228 -279 -185 -30 -197 -22 -303 210 -86 188 -109 216 -184
226 -26 4 -71 -2 -128 -17 -74 -20 -93 -30 -129 -65 -40 -39 -43 -46 -43 -96
0 -30 7 -119 16 -199 20 -170 16 -205 -29 -247 -36 -35 -225 -113 -274 -113
-49 0 -91 38 -199 180 -125 166 -147 183 -229 178 -48 -4 -76 -13 -138 -48
-46 -27 -86 -57 -97 -75 -38 -62 -36 -87 29 -276 34 -97 61 -189 61 -206 0
-49 -40 -94 -148 -167 -90 -61 -107 -69 -147 -68 -55 0 -57 1 -219 141 -141
121 -175 138 -245 122 -59 -13 -179 -113 -204 -170 -30 -69 -20 -103 79 -263
114 -186 122 -205 100 -260 -22 -59 -176 -214 -224 -228 -48 -13 -71 -6 -185
57 -54 30 -132 71 -173 90 -70 33 -76 35 -121 23 -57 -13 -74 -26 -135 -105
-53 -68 -68 -101 -68 -150 0 -58 16 -82 143 -213 68 -70 130 -137 136 -150 27
-52 17 -96 -49 -207 -104 -175 -111 -178 -365 -106 -170 48 -187 51 -227 41
-57 -16 -96 -60 -135 -153 -38 -89 -42 -147 -13 -194 12 -20 72 -67 157 -124
167 -111 190 -132 204 -182 9 -34 6 -52 -31 -161 -62 -187 -69 -191 -309 -180
-205 10 -225 9 -265 -14 -40 -23 -66 -70 -82 -145 -27 -126 -12 -202 48 -241
13 -9 91 -42 174 -74 173 -66 197 -80 220 -124 14 -26 15 -49 10 -127 -9 -127
-22 -181 -53 -213 -36 -38 -57 -44 -251 -74 -242 -37 -262 -56 -262 -239 0
-183 20 -202 262 -239 194 -30 215 -36 251 -74 31 -32 44 -86 53 -213 5 -78 4
-101 -10 -127 -23 -44 -47 -58 -220 -124 -83 -32 -161 -65 -174 -74 -60 -39
-75 -115 -48 -241 16 -75 42 -122 82 -145 40 -23 60 -24 265 -14 240 11 247 7
309 -180 62 -185 60 -188 -173 -343 -85 -57 -145 -104 -157 -124 -29 -47 -25
-105 13 -194 39 -93 78 -137 135 -153 40 -10 57 -7 227 41 254 72 261 69 365
-106 66 -111 76 -155 49 -207 -6 -13 -68 -80 -136 -150 -127 -131 -143 -155
-143 -213 0 -49 15 -82 68 -150 61 -79 78 -92 135 -105 45 -12 51 -10 121 23
41 19 121 61 178 93 106 59 160 71 205 46 43 -25 184 -179 199 -220 22 -55 14
-74 -100 -260 -99 -160 -109 -194 -79 -263 25 -57 145 -157 204 -170 70 -16
104 1 245 122 162 140 164 141 219 141 40 1 57 -7 147 -68 108 -73 148 -118
148 -167 0 -17 -27 -109 -61 -206 -65 -189 -67 -214 -29 -276 11 -18 51 -48
97 -75 62 -35 90 -44 138 -48 82 -5 104 12 229 178 108 142 150 180 199 180
49 0 238 -78 274 -113 45 -42 49 -77 29 -247 -9 -80 -16 -169 -16 -199 0 -50
3 -57 43 -96 36 -35 55 -45 129 -65 173 -45 206 -24 306 197 39 87 81 171 94
186 41 50 86 57 215 36 196 -32 205 -43 229 -284 9 -94 22 -185 28 -204 6 -19
28 -48 49 -65 37 -29 43 -31 148 -34 120 -5 151 3 193 47 25 27 47 104 96 343
22 112 61 136 233 145 188 9 200 0 277 -235 29 -86 59 -169 66 -184 33 -63
100 -82 221 -62 97 15 138 36 170 84 22 31 23 42 23 224 0 265 5 274 195 327
116 32 163 34 206 6 13 -9 69 -91 123 -181 90 -151 103 -168 143 -187 55 -27
99 -22 202 21 155 64 165 99 105 359 -38 165 -40 211 -8 255 24 32 217 136
266 143 55 8 98 -23 228 -165 64 -69 129 -131 147 -138 67 -29 124 -14 229 62
125 89 128 136 21 358 -81 168 -91 210 -63 265 20 39 181 171 226 187 43 15
92 6 131 -24 13 -11 82 -58 152 -105 114 -77 133 -87 173 -87 64 0 113 29 182
109 47 55 62 80 67 114 9 60 -7 94 -108 224 -127 163 -137 180 -137 227 1 48
5 56 89 165 70 92 109 121 161 121 20 0 103 -29 195 -66 237 -98 279 -93 369
50 42 65 50 87 54 134 2 42 -2 65 -15 88 -10 18 -78 82 -151 144 -73 61 -140
124 -150 138 -31 48 -22 106 39 227 50 102 57 112 100 133 l46 23 174 -31
c204 -35 218 -36 268 -11 47 24 66 53 97 144 43 125 27 200 -53 250 -21 13
-98 54 -170 91 -190 96 -203 121 -160 308 42 181 59 192 311 203 179 7 207 13
244 48 43 40 54 76 59 187 4 93 2 109 -16 137 -30 48 -52 58 -235 108 -185 50
-191 53 -222 87 -31 34 -36 58 -36 183 0 125 5 149 36 183 31 34 37 37 222 87
183 50 205 60 235 108 18 28 20 44 16 137 -5 111 -16 147 -59 187 -37 35 -65
41 -244 48 -252 11 -269 22 -311 203 -43 187 -30 212 160 308 72 37 149 78
170 91 80 50 96 125 53 250 -31 91 -50 120 -97 144 -50 25 -64 24 -268 -11
l-174 -31 -46 24 c-42 21 -51 32 -100 133 -63 125 -71 182 -35 231 11 15 79
77 150 137 71 59 137 122 147 140 13 23 17 46 15 88 -4 47 -12 69 -54 134 -90
143 -132 148 -369 50 -92 -37 -175 -66 -195 -66 -52 0 -91 29 -161 121 -84
109 -88 117 -89 165 0 47 10 64 137 227 101 130 117 164 108 224 -5 34 -20 59
-67 114 -69 80 -118 109 -182 109 -40 0 -59 -10 -173 -87 -70 -47 -139 -94
-152 -105 -39 -30 -88 -39 -131 -24 -45 16 -206 148 -226 187 -28 55 -18 97
63 265 107 222 104 269 -21 358 -105 76 -162 91 -229 62 -18 -7 -83 -69 -147
-138 -130 -142 -173 -173 -228 -165 -49 7 -242 111 -266 143 -32 44 -30 90 8
255 41 178 44 230 16 276 -24 40 -46 54 -143 92 -91 36 -126 38 -182 11 -37
-18 -53 -39 -141 -186 -54 -90 -110 -172 -123 -181 -43 -28 -90 -26 -206 6
-190 53 -195 62 -195 327 0 182 -1 193 -23 224 -32 48 -75 69 -170 85 -120 19
-189 0 -221 -63 -7 -15 -37 -98 -66 -184 -77 -235 -89 -244 -277 -235 -172 9
-211 33 -233 145 -63 309 -76 344 -142 378 -39 20 -223 19 -263 -2z m-322
-1508 c68 -33 140 -109 175 -184 l27 -57 3 -585 c2 -380 0 -597 -7 -620 -18
-62 -74 -104 -201 -153 -207 -80 -372 -174 -540 -307 -122 -97 -146 -110 -211
-110 -50 0 -72 11 -540 280 -268 154 -507 299 -532 321 -55 47 -112 155 -122
227 -9 68 16 163 61 228 36 53 197 203 339 316 358 286 789 511 1230 642 148
45 231 45 318 2z m1734 0 c555 -160 1096 -475 1500 -872 108 -106 138 -166
138 -279 0 -71 -4 -89 -33 -147 -21 -43 -51 -83 -85 -114 -33 -30 -227 -147
-537 -325 -450 -260 -488 -279 -532 -279 -67 0 -101 16 -199 96 -171 138 -402
269 -592 335 -80 28 -130 66 -158 120 -19 38 -20 56 -17 627 l3 587 23 57 c42
103 145 194 246 219 64 15 127 8 243 -25z m-712 -2190 c238 -61 427 -165 602
-330 198 -187 331 -429 390 -706 24 -118 24 -372 0 -490 -59 -277 -192 -519
-390 -706 -175 -166 -364 -270 -602 -330 -134 -35 -384 -44 -522 -20 -277 48
-521 174 -719 371 -192 192 -308 407 -370 690 -24 111 -24 369 0 480 62 283
178 498 370 690 153 153 328 260 529 324 162 52 231 61 432 57 153 -3 195 -8
280 -30z m-3329 -130 c110 -51 970 -551 1000 -582 51 -53 60 -105 38 -231 -15
-85 -19 -158 -19 -338 0 -180 4 -253 19 -338 21 -123 14 -172 -33 -226 -25
-30 -865 -520 -1001 -585 -58 -28 -75 -31 -155 -31 -77 1 -98 5 -147 28 -67
33 -131 94 -163 157 -30 58 -88 314 -116 505 -16 111 -23 218 -26 410 -7 356
13 570 84 875 47 208 80 268 182 335 92 61 230 70 337 21z m6338 1 c66 -31
134 -96 164 -158 12 -25 38 -113 57 -195 121 -522 121 -1076 0 -1598 -19 -82
-45 -170 -57 -195 -49 -102 -160 -176 -281 -188 -113 -10 -154 9 -687 316
-457 263 -487 281 -514 325 -36 57 -38 99 -12 251 25 151 25 429 0 580 -26
152 -24 194 12 251 27 44 56 62 514 326 267 153 512 287 545 298 80 27 183 21
259 -13z m-4702 -2623 c17 -9 74 -51 128 -94 168 -133 333 -227 540 -307 127
-49 183 -91 201 -153 7 -23 9 -240 7 -620 l-3 -585 -27 -57 c-58 -125 -171
-207 -296 -215 -56 -4 -87 1 -192 32 -437 128 -874 355 -1235 643 -142 113
-303 263 -339 316 -45 65 -70 160 -61 228 10 74 68 181 124 229 26 22 265 166
531 320 467 268 487 279 538 279 29 0 67 -7 84 -16z m3388 -263 c310 -178 504
-295 537 -325 34 -31 64 -71 85 -114 29 -58 33 -76 33 -147 0 -113 -30 -174
-138 -280 -418 -408 -980 -730 -1535 -881 -117 -32 -192 -29 -276 11 -70 33
-147 117 -178 193 l-23 57 -3 587 c-3 571 -2 589 17 627 28 54 78 92 158 120
190 66 421 197 592 335 100 81 129 95 196 96 48 0 74 -13 535 -279z"/>
</g>
</svg>
