<svg id="Layer_1" data-name="Layer 1" xmlns="http://www.w3.org/2000/svg" viewBox="0 0 86.72 77.18">
  <defs>
    <style>
      .cls-1, .cls-2, .cls-3 {
        fill: none;
      }

      .cls-1, .cls-2, .cls-3, .cls-4, .cls-6 {
        stroke: #231f20;
        stroke-miterlimit: 10;
      }

      .cls-1, .cls-3, .cls-4 {
        stroke-width: 0.5px;
      }

      .cls-2 {
        stroke-width: 0.25px;
      }

      .cls-3 {
        opacity: 0.99;
      }

      .cls-4, .cls-6 {
        fill: #fff;
      }

      .cls-5 {
        fill: #010101;
      }

      .cls-6 {
        stroke-width: 3px;
      }
    </style>
  </defs>
  <title>head</title>
  <polygon id="right-bar" class="cls-1" points="57.94 19.27 54.12 19.39 54.12 17.41 53.46 16.47 53.59 14.89 54.12 14.09 54.12 12.93 54.34 11.91 54.98 11.7 56.23 11.7 57 11.89 57.21 12.8 57.94 19.27"/>
  <polygon id="left-bar" class="cls-1" points="31.56 19.89 27.75 19.89 28.46 13.22 28.63 12.51 29.17 12.3 30.65 12.3 31.36 12.49 31.56 13.32 31.56 14.76 32.17 15.39 32.17 16.86 31.56 17.49 31.56 19.89"/>
  <rect id="left-ear2" class="cls-2" x="17.97" y="44.97" width="1.87" height="3.23" rx="0.25" ry="0.25" transform="translate(-2.25 -7.04) rotate(7.78)"/>
  <rect id="right-ear2" class="cls-2" x="84.44" y="45.06" width="1.97" height="3.23" rx="0.25" ry="0.25" transform="translate(-15.66 11.01) rotate(-10.23)"/>
  <polygon id="left-ear" class="cls-3" points="14.4 48.34 10.43 46.66 11.66 37.79 15.93 37.3 14.4 48.34"/>
  <polygon id="right-ear" class="cls-1" points="76.65 46.81 72.71 48.4 70.64 37.45 74.88 37.45 76.65 46.81"/>
  <path id="head" class="cls-4" d="M81.49,81.83H23.84a2,2,0,0,1-2-2V64.29a1.94,1.94,0,0,1,0-.24l4.44-37.31a2,2,0,0,1,2-1.77l45.59-.78a2,2,0,0,1,2,1.6l7.62,36a2,2,0,0,1,0,.42V79.83A2,2,0,0,1,81.49,81.83Z" transform="translate(-8.73 -4.91)"/>
  <path id="gear-nose" class="cls-5" d="M52.35,48.9a.11.11,0,0,0-.07.08s0,.09,0,.16,0,.21-.19.23-.16,0-.25-.17-.09-.18-.15-.19a.28.28,0,0,0-.11,0,.14.14,0,0,0-.1,0s0,0,0,.08,0,.1,0,.16,0,.17,0,.21a.6.6,0,0,1-.22.09s-.08,0-.17-.15-.12-.15-.19-.15l-.11,0a.3.3,0,0,0-.08.07s0,.07,0,.22a1,1,0,0,1,.05.18s0,.07-.12.13-.09.06-.12.06,0,0-.18-.12-.15-.11-.21-.1a.46.46,0,0,0-.17.14c0,.06,0,.09.07.22s.1.17.08.22a.62.62,0,0,1-.18.18s-.06,0-.16,0l-.14-.08c-.06,0-.06,0-.1,0s-.06,0-.11.09-.06.08-.06.12,0,.07.12.18l.11.12s0,.08,0,.18-.09.14-.3.08-.15,0-.19,0-.08.05-.11.13a.18.18,0,0,0,0,.16l.13.1c.14.09.16.11.17.15s0,0,0,.13,0,.16-.25.15-.19,0-.22,0a.22.22,0,0,0-.07.12c0,.11,0,.17,0,.2l.15.06c.14.06.16.07.18.11a.22.22,0,0,1,0,.1c0,.11,0,.15,0,.18s0,0-.21.06-.21,0-.21.2,0,.16.21.19.18,0,.21.06,0,.08,0,.18a.28.28,0,0,1,0,.11s0,0-.18.1l-.15.06s-.06.09,0,.2a.22.22,0,0,0,.07.12s.05,0,.22,0,.2,0,.25.15.05.15-.14.28a.56.56,0,0,0-.13.11s0,.08,0,.16a.19.19,0,0,0,.11.12s.05,0,.19,0,.22-.06.3.09.07.12,0,.17l-.11.12c-.1.11-.12.13-.12.18a.19.19,0,0,0,.06.12c.05.07.06.08.11.09s0,0,.1,0l.15-.08c.09,0,.13-.06.17,0a1,1,0,0,1,.16.19s0,.06-.08.21-.09.16-.07.22a.38.38,0,0,0,.17.14c.06,0,.09,0,.21-.1s.13-.12.18-.12,0,0,.12.06.12.1.12.14a1,1,0,0,1-.05.17c0,.15,0,.17,0,.23l.08.06a.3.3,0,0,0,.11,0c.07,0,.09,0,.19-.15s.12-.15.17-.15a.85.85,0,0,1,.22.09s0,.07,0,.21,0,.14,0,.16,0,.05,0,.08a.19.19,0,0,0,.1.06c.15,0,.18,0,.26-.17a.47.47,0,0,1,.08-.15s.07,0,.17,0,.17,0,.19.23a.75.75,0,0,0,0,.17s0,0,0,.06,0,0,.12,0,.12,0,.16,0a1,1,0,0,0,.08-.29c0-.09.05-.11.19-.12s.17,0,.23.2l0,.15c0,.05.09.07.19.05a.17.17,0,0,0,.14-.07s0,0,0-.18,0-.23.16-.27.13,0,.17,0l.1.15c.07.13.09.14.12.15s.08,0,.17,0,.13-.08.08-.3,0-.17,0-.21a.66.66,0,0,1,.22-.12s.08,0,.18.14.11.11.13.11.1,0,.19,0,.1-.11,0-.3S55,56,55,55.92a.58.58,0,0,1,.19-.16.15.15,0,0,1,.11,0l.12.09c.1.06.11.07.14.07a.17.17,0,0,0,.15-.09c0-.05.06-.07.06-.09s0-.08-.09-.19-.11-.15-.11-.19,0,0,.07-.13.09-.1.13-.1l.17.05c.19.08.23.08.3,0a.25.25,0,0,0,.05-.11.1.1,0,0,0,0-.07.64.64,0,0,0-.12-.12L56,54.74s0-.09,0-.19,0-.09.08-.11h0l.14,0c.17,0,.18,0,.22,0s.06,0,.08-.12,0-.16,0-.21l-.14-.07c-.16-.08-.17-.1-.13-.26s0-.15.25-.16.17,0,.21,0a.22.22,0,0,0,0-.16c0-.08,0-.09,0-.11s0,0-.19-.09-.16,0-.19-.07,0-.05,0-.15,0-.13,0-.16,0,0,.19-.07.17,0,.19-.09,0,0,0-.11,0-.12,0-.15-.06,0-.21,0-.22,0-.25-.17,0-.18.13-.26l.14-.07c.07,0,.08-.11,0-.21s0-.1-.08-.12-.05,0-.22,0l-.14,0,0,0s0,0-.08-.11-.06-.15,0-.19a.64.64,0,0,1,.12-.12l.12-.11a.15.15,0,0,0,0-.08.31.31,0,0,0-.05-.11c-.07-.12-.11-.12-.3,0l-.17.06s-.07,0-.13-.1-.07-.1-.07-.14,0,0,.11-.19.1-.13.09-.18,0-.05-.06-.1a.19.19,0,0,0-.15-.09s0,0-.14.07l-.12.09a.12.12,0,0,1-.11,0,.7.7,0,0,1-.19-.15s0-.08,0-.22.09-.23,0-.3-.14-.07-.19-.05l-.13.11c-.1.12-.14.15-.18.14a.66.66,0,0,1-.22-.12s0-.07,0-.21,0-.19,0-.23,0,0-.12-.07-.11,0-.15,0-.05,0-.12.15a.71.71,0,0,1-.1.15.24.24,0,0,1-.17,0c-.16-.05-.16-.05-.16-.27s0-.16,0-.19a.17.17,0,0,0-.14-.07c-.1,0-.16,0-.19,0s0,.08,0,.15-.07.21-.23.2-.17,0-.19-.12c0-.26-.06-.29-.12-.31A.41.41,0,0,0,52.35,48.9Zm-.26,1.25a.34.34,0,0,1,.14.15l0,0v.49a4.53,4.53,0,0,1,0,.51s-.06.09-.17.13a1.48,1.48,0,0,0-.44.25c-.1.08-.12.09-.18.09s-.06,0-.44-.23l-.44-.26a.3.3,0,0,1-.1-.19.26.26,0,0,1,.05-.19,1.91,1.91,0,0,1,.28-.26,3,3,0,0,1,1-.53A.31.31,0,0,1,52.09,50.15Zm1.43,0a2.92,2.92,0,0,1,1.24.72.27.27,0,0,1,.12.23.24.24,0,0,1,0,.12.31.31,0,0,1-.07.09,5.14,5.14,0,0,1-.45.27c-.37.22-.4.23-.44.23s-.08,0-.16-.08a1.69,1.69,0,0,0-.49-.27.24.24,0,0,1-.13-.1s0,0,0-.52v-.49l0,0a.34.34,0,0,1,.2-.19A.41.41,0,0,1,53.52,50.15ZM52.93,52a1.06,1.06,0,0,1,.5.27,1.11,1.11,0,0,1,.32.58,1.41,1.41,0,0,1,0,.41,1.11,1.11,0,0,1-.32.58,1.08,1.08,0,0,1-.5.28,1.55,1.55,0,0,1-.43,0,1.08,1.08,0,0,1-.59-.3,1.09,1.09,0,0,1-.31-.58,1.28,1.28,0,0,1,0-.39,1.07,1.07,0,0,1,.31-.57,1,1,0,0,1,.43-.27,1,1,0,0,1,.36,0A.63.63,0,0,1,52.93,52Zm-2.75.1c.09,0,.8.46.83.49s.05.08,0,.19A1,1,0,0,0,51,53a1,1,0,0,0,0,.28c0,.1,0,.14,0,.18s-.72.43-.83.49a.25.25,0,0,1-.13,0,.22.22,0,0,1-.12,0,.33.33,0,0,1-.13-.13,1.71,1.71,0,0,1-.1-.42,2.68,2.68,0,0,1,0-.34,2.38,2.38,0,0,1,.07-.72c0-.17.07-.22.15-.28A.31.31,0,0,1,50.18,52.06Zm5.24,0a.44.44,0,0,1,.14.13.85.85,0,0,1,0,.17,2.94,2.94,0,0,1,0,1.32.91.91,0,0,1,0,.16.31.31,0,0,1-.24.15c-.09,0-.12,0-.56-.26s-.41-.23-.43-.27,0-.08,0-.2a1.93,1.93,0,0,0,0-.48c0-.13,0-.16,0-.21s.05,0,.43-.27l.45-.25A.38.38,0,0,1,55.42,52.06Zm-3.89,2.17.11.08a1.48,1.48,0,0,0,.44.25c.11,0,.16.08.17.13a4.53,4.53,0,0,1,0,.51v.49l0,0a.28.28,0,0,1-.24.18.33.33,0,0,1-.16,0,3,3,0,0,1-1-.54,1.48,1.48,0,0,1-.28-.26.26.26,0,0,1-.05-.19.3.3,0,0,1,.1-.19l.44-.26c.38-.22.4-.23.44-.23Zm2.8.22a5.14,5.14,0,0,1,.45.27.31.31,0,0,1,.07.09.27.27,0,0,1,0,.12.3.3,0,0,1-.12.24,3,3,0,0,1-1.27.72.3.3,0,0,1-.23,0,.36.36,0,0,1-.14-.16l0,0v-.49c0-.47,0-.48,0-.52a.19.19,0,0,1,.13-.09,2,2,0,0,0,.49-.28c.08-.07.11-.08.16-.08S54,54.23,54.33,54.45Z" transform="translate(-8.73 -4.91)"/>
  <circle id="left-eye" class="cls-6" cx="31.56" cy="36.96" r="8.24"/>
  <circle id="right-eye" class="cls-6" cx="57.21" cy="36.96" r="8.24"/>
  <polyline id="left-ant" class="cls-2" points="9.27 41.41 0.15 36.96 2.33 28.72 4.71 26.72 3.75 23.38 7.02 21.16 5.2 17.88 7.21 15.16 6.71 12.17 8.52 5.34"/>
  <polyline id="right-ant" class="cls-2" points="77.7 41.77 86.58 35.59 85.84 30.92 84.65 28.55 85.11 26.34 83.36 23.89 84.24 20.96 82.65 19.29 83.45 16 82.14 7.84"/>
  <circle id="right-bulb" class="cls-2" cx="81.46" cy="5.34" r="2.61"/>
  <circle id="left-bulb" class="cls-2" cx="9.27" cy="2.73" r="2.61"/>
  <polyline id="head-ant" class="cls-2" points="32.17 16.09 35.43 15.91 36.65 17.13 37.99 15.13 39.88 16.71 41.27 14.78 42.68 16.88 44.43 14.78 46.4 16.66 47.94 14.91 49.62 15.91 53.46 15.54"/>
  <circle id="rivet" class="cls-2" cx="19.48" cy="22.09" r="0.88"/>
  <circle id="rivet-2" data-name="rivet" class="cls-2" cx="29.96" cy="21.64" r="0.88"/>
  <circle id="rivet-3" data-name="rivet" class="cls-2" cx="65.27" cy="21.22" r="0.88"/>
  <circle class="cls-2" cx="43.16" cy="21.4" r="0.88"/>
  <circle class="cls-2" cx="54.82" cy="21.22" r="0.88"/>
  <circle class="cls-2" cx="18.16" cy="32.01" r="0.88"/>
  <circle class="cls-2" cx="16.95" cy="42.61" r="0.88"/>
  <circle class="cls-2" cx="15.65" cy="52.53" r="0.88"/>
  <circle class="cls-2" cx="14.77" cy="63.09" r="0.88"/>
  <circle class="cls-2" cx="15.06" cy="74.89" r="0.88"/>
  <circle class="cls-2" cx="24.99" cy="74.89" r="0.88"/>
  <circle class="cls-2" cx="36.73" cy="74.95" r="0.88"/>
  <circle class="cls-2" cx="49.31" cy="74.89" r="0.88"/>
  <circle class="cls-2" cx="61.65" cy="74.89" r="0.88"/>
  <circle class="cls-2" cx="72.61" cy="74.89" r="0.88"/>
  <circle class="cls-2" cx="73.06" cy="60.72" r="0.88"/>
  <circle class="cls-2" cx="71.73" cy="50.59" r="0.88"/>
  <circle class="cls-2" cx="69.13" cy="39.2" r="0.88"/>
  <circle class="cls-2" cx="67.15" cy="29.36" r="0.88"/>
</svg>
