<svg class="bobot-svg" id="bobot" data-name="Bobot" xmlns="http://www.w3.org/2000/svg" viewBox="0 0 69.29 93.38">
  <defs>
    <style>
      .cls-1, .cls-5, .cls-6 {
        fill: none;
      }

      .cls-1, .cls-2, .cls-3, .cls-4, .cls-5, .cls-6 {
        stroke: #231f20;
        stroke-miterlimit: 10;
      }

      .cls-1, .cls-2 {
        stroke-width: 0.5px;
      }

      .cls-2, .cls-3, .cls-4 {
        fill: #fff;
      }

      .cls-3, .cls-6 {
        stroke-width: 0.75px;
      }

      .cls-4, .cls-5 {
        stroke-width: 0.25px;
      }

      .cls-7 {
        fill: #010101;
      }
    </style>
  </defs>
  <title>bobot</title>
  <rect id="left-ear" class="cls-1" x="16.59" y="6.88" width="2.5" height="6.67" rx="1.25" ry="1.25"/>
  <rect id="right-ear" class="cls-1" x="50.59" y="6.92" width="2.5" height="6.67" rx="1.25" ry="1.25"/>
  <path id="left-thumb" class="cls-2" d="M22.41,72.57l-.86.61-.66-4.88a.46.46,0,0,1,.45-.52l.75,0a.46.46,0,0,1,.47.48Z" transform="translate(-15.16 -2.79)"/>
  <path id="left-hand" class="cls-2" d="M20.34,73.46l-1.07-.53a.48.48,0,0,1-.25-.38l-.3-4.15a.45.45,0,0,1,.48-.49l.72,0a.46.46,0,0,1,.42.46Z" transform="translate(-15.16 -2.79)"/>
  <path id="right-thumb" class="cls-2" d="M77.29,73.49l.91.61.41-5.39a.44.44,0,0,0-.46-.49l-.8,0a.45.45,0,0,0-.44.49Z" transform="translate(-15.16 -2.79)"/>
  <path id="right-hand" class="cls-2" d="M80.75,73.32a.62.62,0,0,1-.23.43l-1.07.79-.35-5.67a.57.57,0,0,1,.53-.6l.75,0a.57.57,0,0,1,.6.6Z" transform="translate(-15.16 -2.79)"/>
  <rect id="right-forearm" class="cls-3" x="76.77" y="57.98" width="4.96" height="8.32" transform="translate(140.31 125.15) rotate(-177.3)"/>
  <rect id="left-forearm" class="cls-3" x="17.86" y="57.52" width="4.96" height="8.32" transform="matrix(-1, 0.04, -0.04, -1, 27.81, 119.77)"/>
  <rect id="left-elbow" class="cls-3" x="1.2" y="50.79" width="7.96" height="4.5" rx="2.25" ry="2.25"/>
  <rect id="right-elbow" class="cls-3" x="60.33" y="50.79" width="7.96" height="4.5" rx="2.25" ry="2.25"/>
  <rect id="left-arm" class="cls-3" x="2.7" y="42.91" width="4.96" height="8.32"/>
  <rect id="right-arm" class="cls-3" x="61.83" y="42.91" width="4.96" height="8.32"/>
  <path id="left-shoulder" class="cls-3" d="M15.61,40.57c-.35,3.8.37,5.64,5.8,5.48,3.4-.1,3.91-2.22,3.7-6.16s-.34-7-3.74-6.79S16,36.63,15.61,40.57Z" transform="translate(-15.16 -2.79)"/>
  <path id="right-shoulder" class="cls-3" d="M84,40.59c.37,3.8-.29,5.66-5.49,5.58-3.25-.05-3.77-2.17-3.6-6.11s.24-7,3.49-6.84S83.6,36.67,84,40.59Z" transform="translate(-15.16 -2.79)"/>
  <rect id="neck" class="cls-3" x="22.42" y="25.88" width="24.83" height="4.67"/>
  <path id="body" class="cls-3" d="M70.57,71H29.43a2.56,2.56,0,0,1-2.55-2.43l-1.66-33a2.56,2.56,0,0,1,2.55-2.69H72.23a2.56,2.56,0,0,1,2.55,2.69l-1.66,33A2.56,2.56,0,0,1,70.57,71Z" transform="translate(-15.16 -2.79)"/>
  <path id="head" class="cls-3" d="M65,28.67H35a2.56,2.56,0,0,1-2.55-2.74l1.4-20.38a2.55,2.55,0,0,1,2.55-2.38H63.61a2.55,2.55,0,0,1,2.55,2.38l1.4,20.38A2.56,2.56,0,0,1,65,28.67Z" transform="translate(-15.16 -2.79)"/>
  <rect id="right-leg-two" class="cls-3" x="41.13" y="70.92" width="13.37" height="6.4"/>
  <rect id="left-leg-two" class="cls-3" x="16.43" y="70.92" width="12.4" height="6.4"/>
  <rect id="left-leg-three" class="cls-3" x="16.43" y="80.04" width="12.4" height="8"/>
  <rect id="right-leg-three" class="cls-3" x="41.13" y="79.87" width="13.37" height="8"/>
  <rect id="left-leg-one" class="cls-3" x="14.55" y="68.21" width="16.17" height="2.72" rx="1.36" ry="1.36"/>
  <rect id="right-leg-one" class="cls-3" x="39.7" y="68.21" width="16.17" height="2.72" rx="1.36" ry="1.36"/>
  <path id="left-foot" class="cls-3" d="M45.67,95.8H29.9a1,1,0,0,1-1-1.13l.52-3.28a1,1,0,0,1,1-.82H45.06a1,1,0,0,1,1,.8l.61,3.28A1,1,0,0,1,45.67,95.8Z" transform="translate(-15.16 -2.79)"/>
  <path id="right-foot" class="cls-3" d="M70.87,95.8H55.1a1,1,0,0,1-1-1.13l.52-3.28a1,1,0,0,1,1-.82H70.26a1,1,0,0,1,1,.8l.61,3.28A1,1,0,0,1,70.87,95.8Z" transform="translate(-15.16 -2.79)"/>
  <rect id="left-wrist" class="cls-3" x="16.98" y="65.51" width="7.14" height="2.17" rx="1.08" ry="1.08" transform="translate(31.85 128.28) rotate(174.83)"/>
  <rect id="right-wrist" class="cls-3" x="75.25" y="65.96" width="7.13" height="2.17" rx="1.08" ry="1.08" transform="translate(-9.11 -9.32) rotate(4.93)"/>
  <rect id="left-knee" class="cls-3" x="15.52" y="76.54" width="14.24" height="5.33" rx="2.67" ry="2.67"/>
  <rect id="right-knee" class="cls-3" x="39.84" y="76.54" width="15.91" height="5.33" rx="2.67" ry="2.67"/>
  <circle id="left-eye" class="cls-2" cx="27.81" cy="9.88" r="3.67"/>
  <circle id="right-eye" class="cls-2" cx="41.13" cy="9.88" r="3.67"/>
  <rect id="mouth-frame" class="cls-4" x="18.43" y="18.71" width="32.79" height="5.67" rx="0.69" ry="0.69"/>
  <rect id="mouth" class="cls-4" x="18.81" y="19.12" width="32.06" height="4.84" rx="0.69" ry="0.69"/>
  <rect id="nose" class="cls-4" x="33.18" y="13.38" width="2.58" height="1.83" rx="0.92" ry="0.92"/>
  <path id="left-eyebrow" class="cls-5" d="M39.31,8.71c.91-1.46,4.95-2.68,7.33,0" transform="translate(-15.16 -2.79)"/>
  <path id="right-eyebrow" class="cls-5" d="M52.63,8.71c.91-1.46,4.95-2.68,7.33,0" transform="translate(-15.16 -2.79)"/>
  <circle id="left-pupil" class="cls-5" cx="27.81" cy="9.88" r="1.16"/>
  <circle id="right-pupil" class="cls-5" cx="41.13" cy="9.88" r="1.16"/>
  <rect id="screen-frame" class="cls-4" x="14.15" y="41.19" width="40.65" height="25.5" rx="1.15" ry="1.15"/>
  <rect id="screen" class="cls-4" x="14.55" y="41.65" width="39.79" height="24.58" rx="1.15" ry="1.15"/>
  <line id="ant-bar-right" class="cls-6" x1="53.09" y1="9.88" x2="56.68" y2="9.88"/>
  <line id="ant-bar-left" class="cls-6" x1="16.43" y1="9.88" x2="13.76" y2="9.88"/>
  <circle id="right-antball" class="cls-5" cx="57.76" cy="9.95" r="1.08"/>
  <circle id="left-antball" class="cls-5" cx="12.76" cy="9.95" r="1.08"/>
  <circle id="btn-one" class="cls-5" cx="18.18" cy="35.31" r="1.97"/>
  <circle id="btn-two" class="cls-5" cx="23.37" cy="35.31" r="1.97"/>
  <circle id="btn-three" class="cls-5" cx="28.62" cy="35.31" r="1.97"/>
  <line id="slide-three" class="cls-5" x1="37.7" y1="32.3" x2="37.7" y2="39.43"/>
  <line id="slide-two" class="cls-5" x1="41.7" y1="32.3" x2="41.7" y2="39.43"/>
  <line id="slide-one" class="cls-5" x1="45.7" y1="32.3" x2="45.7" y2="39.43"/>
  <rect id="toggle-three" class="cls-4" x="44.58" y="33.34" width="2.24" height="0.81"/>
  <rect id="toggle-two" class="cls-4" x="40.58" y="33.34" width="2.24" height="0.81"/>
  <rect id="toggle-one" class="cls-4" x="36.58" y="33.34" width="2.24" height="0.81"/>
  <path id="gear-one" class="cls-7" d="M68.87,33.66a.12.12,0,0,0-.07.07.54.54,0,0,0,0,.17c0,.19,0,.2-.19.22s-.16,0-.25-.17-.09-.17-.15-.18h-.1a.23.23,0,0,0-.11.06s0,0,0,.07a1.23,1.23,0,0,0,0,.17c0,.14,0,.16,0,.2a.65.65,0,0,1-.23.09s-.07,0-.16-.15-.12-.15-.19-.14a.19.19,0,0,0-.11,0,.18.18,0,0,0-.08.06s0,.07,0,.22,0,.16,0,.17,0,.08-.13.14-.08,0-.12,0,0,0-.17-.11-.15-.11-.2-.1a.33.33,0,0,0-.17.14c0,.05,0,.08.06.21s.1.17.08.22a.52.52,0,0,1-.18.18s-.06,0-.15,0l-.14-.07c-.06,0-.06,0-.1,0s-.06,0-.11.09a.19.19,0,0,0-.06.12c0,.05,0,.07.12.17a.64.64,0,0,1,.11.13s0,.08,0,.17-.09.14-.3.08-.15,0-.18,0-.08,0-.11.12,0,.12,0,.16a.4.4,0,0,0,.13.1c.13.09.15.11.16.15s0,0,0,.13-.06.16-.25.15-.19,0-.22,0a.18.18,0,0,0-.07.12c0,.1,0,.17,0,.2l.14.06c.14,0,.16.06.18.1a.13.13,0,0,1,0,.1.38.38,0,0,1,0,.18s-.05,0-.21.06-.21,0-.21.19,0,.17.21.2.18,0,.21.06a.37.37,0,0,1,0,.17.15.15,0,0,1,0,.11s0,0-.18.1l-.14.06s-.06.09,0,.2a.13.13,0,0,0,.07.11s0,0,.22,0,.2,0,.25.14,0,.16-.14.28l-.13.1s0,.09,0,.16a.19.19,0,0,0,.11.13s.05,0,.18,0,.22-.05.3.09.06.13,0,.17L66,39.9c-.1.11-.12.13-.12.18s0,.06.06.12.06.07.11.08,0,0,.1,0l.14-.08c.09,0,.14-.06.17,0a.67.67,0,0,1,.16.18c0,.05,0,.06-.08.21s-.09.16-.06.22a.33.33,0,0,0,.17.14c.05,0,.08,0,.2-.1s.13-.12.17-.12,0,0,.12.06.13.09.13.13,0,.09,0,.17-.06.18,0,.23a.32.32,0,0,0,.08.06.19.19,0,0,0,.11,0c.07,0,.09,0,.19-.15s.12-.14.16-.14a.65.65,0,0,1,.23.09s0,.06,0,.2a1.18,1.18,0,0,0,0,.16.08.08,0,0,0,0,.08.16.16,0,0,0,.11,0c.14,0,.17,0,.25-.16a1.16,1.16,0,0,1,.07-.15s.08,0,.18,0,.17,0,.19.23a1.09,1.09,0,0,0,0,.17.1.1,0,0,0,0,.05s0,0,.12,0,.12,0,.16,0,0-.08.08-.28,0-.11.19-.12.16,0,.22.2l.06.15s.08.06.18,0a.17.17,0,0,0,.14-.07s0,0,0-.18,0-.23.16-.27.13,0,.16,0l.1.15c.08.13.09.14.12.15s.08,0,.17,0,.13-.08.08-.3,0-.17,0-.2A.48.48,0,0,1,71,40.9s.08,0,.19.13a.64.64,0,0,0,.12.12c.05,0,.1,0,.19,0s.1-.12,0-.3-.07-.17,0-.21a1,1,0,0,1,.19-.16.12.12,0,0,1,.1,0l.13.09c.09.06.11.07.14.07s.09,0,.15-.09,0-.06,0-.09,0-.08-.09-.18S72,40.1,72,40.06s0-.05.07-.13.09-.1.14-.1l.16.05c.19.08.22.08.3,0a.19.19,0,0,0,0-.11.15.15,0,0,0,0-.07l-.12-.12-.13-.11s0-.09,0-.19,0-.09.09-.11h0l.15,0c.16,0,.17,0,.21,0s.06,0,.08-.12,0-.16,0-.2l-.14-.08c-.15-.08-.16-.1-.13-.25s0-.16.26-.16.16,0,.19,0,.05-.07.05-.16a.17.17,0,0,0,0-.11s0-.05-.19-.09-.16,0-.18-.07,0,0,0-.15,0-.12,0-.15,0,0,.18-.07.17,0,.19-.09,0,0,0-.11,0-.12-.05-.15,0,0-.19,0-.22,0-.26-.17,0-.17.13-.25l.14-.07c.07,0,.08-.1,0-.21s0-.09-.08-.11,0,0-.21,0l-.15,0,0,0s0,0-.09-.11-.05-.15,0-.19l.12-.11.12-.11a.15.15,0,0,0,0-.07.19.19,0,0,0,0-.11c-.08-.12-.11-.12-.3,0l-.16,0s-.08,0-.14-.1-.07-.09-.07-.13,0-.06.11-.19.1-.13.09-.18,0-.05,0-.1a.2.2,0,0,0-.15-.08s0,0-.14.07l-.13.08a.1.1,0,0,1-.1,0,.7.7,0,0,1-.19-.15s0-.08,0-.22.09-.22,0-.29-.14-.07-.19-.05l-.12.11c-.11.12-.14.14-.19.14a.61.61,0,0,1-.21-.12s0-.07,0-.21,0-.19,0-.22,0,0-.11-.08-.11,0-.15,0,0,0-.12.15a.5.5,0,0,1-.1.15s-.07,0-.16,0-.16-.05-.16-.27,0-.16,0-.18a.17.17,0,0,0-.14-.07c-.1,0-.16,0-.18.05s0,.08-.06.15-.07.2-.22.19-.17,0-.19-.12-.06-.28-.12-.31A.5.5,0,0,0,68.87,33.66Zm-.27,1.23a.36.36,0,0,1,.15.15l0,.05v1s-.07.08-.17.12a1.76,1.76,0,0,0-.44.26c-.1.07-.12.08-.17.08s-.06,0-.44-.22L67.11,36a.35.35,0,0,1-.1-.18.45.45,0,0,1,0-.19,2.7,2.7,0,0,1,.28-.26,3.08,3.08,0,0,1,1-.52A.29.29,0,0,1,68.6,34.89Zm1.42,0a3,3,0,0,1,1.23.71.31.31,0,0,1,.11.23.24.24,0,0,1,0,.12.31.31,0,0,1-.07.09,4.24,4.24,0,0,1-.44.27c-.36.21-.4.22-.43.22s-.08,0-.16-.07a1.72,1.72,0,0,0-.49-.28.22.22,0,0,1-.13-.1,2.72,2.72,0,0,1,0-.51v-.48l0,0a.3.3,0,0,1,.2-.18A.37.37,0,0,1,70,34.89Zm-.58,1.79a1,1,0,0,1,.49.27,1.12,1.12,0,0,1,.32.57,1.34,1.34,0,0,1,0,.4,1.11,1.11,0,0,1-.32.58,1,1,0,0,1-.49.27,1.25,1.25,0,0,1-.43,0,1.17,1.17,0,0,1-.59-.31,1.09,1.09,0,0,1-.3-.56,1.27,1.27,0,0,1,0-.39,1.16,1.16,0,0,1,.3-.57,1.1,1.1,0,0,1,.44-.26,1,1,0,0,1,.35-.05A.67.67,0,0,1,69.44,36.68Zm-2.72.1c.09,0,.79.45.82.48s0,.08,0,.19a.94.94,0,0,0,0,.27,1,1,0,0,0,0,.28c0,.1,0,.14,0,.18s-.71.43-.82.48a.21.21,0,0,1-.12,0,.19.19,0,0,1-.12,0,.28.28,0,0,1-.14-.12,2.58,2.58,0,0,1-.09-.42,1.47,1.47,0,0,1,0-.33,2.38,2.38,0,0,1,.07-.72c0-.17.06-.21.14-.27A.31.31,0,0,1,66.72,36.78Zm5.18,0a.33.33,0,0,1,.13.13,1.66,1.66,0,0,1,0,.16,2.9,2.9,0,0,1,0,1.31l0,.16a.29.29,0,0,1-.23.15c-.09,0-.13,0-.56-.26s-.4-.23-.42-.26,0-.09,0-.21a1.85,1.85,0,0,0,0-.47c0-.13,0-.16,0-.21s.05-.05.42-.26l.44-.25A.33.33,0,0,1,71.9,36.78Zm-3.84,2.14.1.08a1.48,1.48,0,0,0,.44.25c.1,0,.15.08.17.13v1l0,0a.28.28,0,0,1-.25.17.3.3,0,0,1-.15,0,3,3,0,0,1-1-.53,1.48,1.48,0,0,1-.28-.26.41.41,0,0,1,0-.18.44.44,0,0,1,.1-.19l.44-.26c.38-.22.4-.23.44-.23Zm2.76.22a4.24,4.24,0,0,1,.44.27.22.22,0,0,1,.07.09.24.24,0,0,1,0,.12.31.31,0,0,1-.11.23,3.19,3.19,0,0,1-1.26.72.32.32,0,0,1-.22,0,.39.39,0,0,1-.15-.16l0,0v-.48a2.84,2.84,0,0,1,0-.51.34.34,0,0,1,.13-.1,1.69,1.69,0,0,0,.49-.27c.08-.07.1-.08.16-.08S70.45,38.92,70.82,39.14Z" transform="translate(-15.16 -2.79)"/>
</svg>
