<svg class="bobot-svg" id="bobot" data-name="bobot" xmlns="http://www.w3.org/2000/svg" viewBox="0 0 69.29 93.38">
  <defs>
    <style>
      .cls-1, .cls-5, .cls-6 {
        fill: none;
      }

      .cls-1, .cls-2, .cls-3, .cls-4, .cls-5, .cls-6 {
        stroke: #231f20;
        stroke-miterlimit: 10;
      }

      .cls-1, .cls-2 {
        stroke-width: 0.5px;
      }

      .cls-2, .cls-3, .cls-4 {
        fill: #fff;
      }

      .cls-3, .cls-6 {
        stroke-width: 0.75px;
      }

      .cls-4, .cls-5 {
        stroke-width: 0.25px;
      }

      .cls-7 {
        fill: #010101;
      }
    </style>
  </defs>
  <title>bobot</title>
  <rect id="left-ear" class="cls-1" x="16.59" y="6.88" width="2.5" height="6.67" rx="1.25" ry="1.25"/>
  <rect id="right-ear" class="cls-1" x="50.59" y="6.92" width="2.5" height="6.67" rx="1.25" ry="1.25"/>
  <path id="left-thumb" class="cls-2" d="M22.41,72.57l-.86.61-.66-4.88a.46.46,0,0,1,.45-.52l.75,0a.46.46,0,0,1,.47.48Z" transform="translate(-15.16 -2.79)"/>
  <path id="left-hand" class="cls-2" d="M20.34,73.46l-1.07-.53a.48.48,0,0,1-.25-.38l-.3-4.15a.45.45,0,0,1,.48-.49l.72,0a.46.46,0,0,1,.42.46Z" transform="translate(-15.16 -2.79)"/>
  <path id="right-thumb" class="cls-2" d="M77.29,73.49l.91.61.41-5.39a.44.44,0,0,0-.46-.49l-.8,0a.45.45,0,0,0-.44.49Z" transform="translate(-15.16 -2.79)"/>
  <path id="right-hand" class="cls-2" d="M80.75,73.32a.62.62,0,0,1-.23.43l-1.07.79-.35-5.67a.57.57,0,0,1,.53-.6l.75,0a.57.57,0,0,1,.6.6Z" transform="translate(-15.16 -2.79)"/>
  <rect id="right-forearm" class="cls-3" x="76.77" y="57.98" width="4.96" height="8.32" transform="translate(140.31 125.15) rotate(-177.3)"/>
  <rect id="left-forearm" class="cls-3" x="17.86" y="57.52" width="4.96" height="8.32" transform="matrix(-1, 0.04, -0.04, -1, 27.81, 119.77)"/>
  <rect id="left-elbow" class="cls-3" x="1.2" y="50.79" width="7.96" height="4.5" rx="2.25" ry="2.25"/>
  <rect id="right-elbow" class="cls-3" x="60.33" y="50.79" width="7.96" height="4.5" rx="2.25" ry="2.25"/>
  <rect id="left-arm" class="cls-3" x="2.7" y="42.91" width="4.96" height="8.32"/>
  <rect id="right-arm" class="cls-3" x="61.83" y="42.91" width="4.96" height="8.32"/>
  <path id="left-shoulder" class="cls-3" d="M15.61,40.57c-.35,3.8.37,5.64,5.8,5.48,3.4-.1,3.91-2.22,3.7-6.16s-.34-7-3.74-6.79S16,36.63,15.61,40.57Z" transform="translate(-15.16 -2.79)"/>
  <path id="right-shoulder" class="cls-3" d="M84,40.59c.37,3.8-.29,5.66-5.49,5.58-3.25-.05-3.77-2.17-3.6-6.11s.24-7,3.49-6.84S83.6,36.67,84,40.59Z" transform="translate(-15.16 -2.79)"/>
  <rect id="neck" class="cls-3" x="22.42" y="25.88" width="24.83" height="4.67"/>
  <path id="body" class="cls-3" d="M70.57,71H29.43a2.56,2.56,0,0,1-2.55-2.43l-1.66-33a2.56,2.56,0,0,1,2.55-2.69H72.23a2.56,2.56,0,0,1,2.55,2.69l-1.66,33A2.56,2.56,0,0,1,70.57,71Z" transform="translate(-15.16 -2.79)"/>
  <path id="head" class="cls-3" d="M65,28.67H35a2.56,2.56,0,0,1-2.55-2.74l1.4-20.38a2.55,2.55,0,0,1,2.55-2.38H63.61a2.55,2.55,0,0,1,2.55,2.38l1.4,20.38A2.56,2.56,0,0,1,65,28.67Z" transform="translate(-15.16 -2.79)"/>
  <rect id="right-leg-two" class="cls-3" x="41.13" y="70.92" width="13.37" height="6.4"/>
  <rect id="left-leg-two" class="cls-3" x="16.43" y="70.92" width="12.4" height="6.4"/>
  <rect id="left-leg-three" class="cls-3" x="16.43" y="80.04" width="12.4" height="8"/>
  <rect id="right-leg-three" class="cls-3" x="41.13" y="79.87" width="13.37" height="8"/>
  <rect id="left-leg-one" class="cls-3" x="14.55" y="68.21" width="16.17" height="2.72" rx="1.36" ry="1.36"/>
  <rect id="right-leg-one" class="cls-3" x="39.7" y="68.21" width="16.17" height="2.72" rx="1.36" ry="1.36"/>
  <path id="left-foot" class="cls-3" d="M45.67,95.8H29.9a1,1,0,0,1-1-1.13l.52-3.28a1,1,0,0,1,1-.82H45.06a1,1,0,0,1,1,.8l.61,3.28A1,1,0,0,1,45.67,95.8Z" transform="translate(-15.16 -2.79)"/>
  <path id="right-foot" class="cls-3" d="M70.87,95.8H55.1a1,1,0,0,1-1-1.13l.52-3.28a1,1,0,0,1,1-.82H70.26a1,1,0,0,1,1,.8l.61,3.28A1,1,0,0,1,70.87,95.8Z" transform="translate(-15.16 -2.79)"/>
  <rect id="left-wrist" class="cls-3" x="16.98" y="65.51" width="7.14" height="2.17" rx="1.08" ry="1.08" transform="translate(31.85 128.28) rotate(174.83)"/>
  <rect id="right-wrist" class="cls-3" x="75.25" y="65.96" width="7.13" height="2.17" rx="1.08" ry="1.08" transform="translate(-9.11 -9.32) rotate(4.93)"/>
  <rect id="left-knee" class="cls-3" x="15.52" y="76.54" width="14.24" height="5.33" rx="2.67" ry="2.67"/>
  <rect id="right-knee" class="cls-3" x="39.84" y="76.54" width="15.91" height="5.33" rx="2.67" ry="2.67"/>
  <circle id="left-eye" class="cls-2" cx="27.81" cy="9.88" r="3.67"/>
  <circle id="right-eye" class="cls-2" cx="41.13" cy="9.88" r="3.67"/>
  <rect id="mouth-frame" class="cls-4" x="18.43" y="18.71" width="32.79" height="5.67" rx="0.69" ry="0.69"/>
  <rect id="mouth" class="cls-4" x="18.81" y="19.12" width="32.06" height="4.84" rx="0.69" ry="0.69"/>
  <rect id="nose" class="cls-4" x="33.18" y="13.38" width="2.58" height="1.83" rx="0.92" ry="0.92"/>
  <path id="left-eyebrow" class="cls-5" d="M39.31,8.71c.91-1.46,4.95-2.68,7.33,0" transform="translate(-15.16 -2.79)"/>
  <path id="right-eyebrow" class="cls-5" d="M52.63,8.71c.91-1.46,4.95-2.68,7.33,0" transform="translate(-15.16 -2.79)"/>
  <circle id="left-pupil" class="cls-5" cx="27.81" cy="9.88" r="1.16"/>
  <circle id="right-pupil" class="cls-5" cx="41.13" cy="9.88" r="1.16"/>
  <rect id="screen-frame" class="cls-4" x="14.15" y="41.19" width="40.65" height="25.5" rx="1.15" ry="1.15"/>
  <rect id="screen" class="cls-4" x="14.55" y="41.65" width="39.79" height="24.58" rx="1.15" ry="1.15"/>
  <line id="ant-bar-right" class="cls-6" x1="53.09" y1="9.88" x2="56.68" y2="9.88"/>
  <line id="ant-bar-left" class="cls-6" x1="16.43" y1="9.88" x2="13.76" y2="9.88"/>
  <circle id="right-antball" class="cls-5" cx="57.76" cy="9.95" r="1.08"/>
  <circle id="left-antball" class="cls-5" cx="12.76" cy="9.95" r="1.08"/>
  <g id="lg-gear">
    <path class="cls-7" d="M63.51,34.29a.07.07,0,0,0-.06.07.37.37,0,0,0,0,.14c0,.18,0,.19-.16.21s-.15,0-.22-.16-.08-.16-.13-.16-.05,0-.1,0a.13.13,0,0,0-.09.05s0,0,0,.07,0,.09,0,.15,0,.15,0,.18a.64.64,0,0,1-.19.08s-.07,0-.15-.13-.1-.14-.16-.13l-.1,0a.22.22,0,0,0-.07.06s0,.06,0,.2a.79.79,0,0,1,.05.15s0,.07-.11.13-.08,0-.11,0,0,0-.15-.11-.13-.1-.18-.09a.29.29,0,0,0-.14.13c0,.05,0,.07.05.19s.09.15.07.19a.38.38,0,0,1-.16.17s0,0-.13,0l-.12-.07s-.06,0-.09,0-.05,0-.1.07a.21.21,0,0,0,0,.11c0,.05,0,.07.1.16l.1.11s0,.07,0,.16-.08.13-.26.07l-.16,0s-.07.05-.1.12a.14.14,0,0,0,0,.14l.11.09c.12.08.14.1.15.13s0,0,0,.12,0,.14-.22.14-.16,0-.19,0-.05.05-.06.1,0,.15,0,.18l.13.06c.12,0,.14,0,.15.09s0,0,0,.09,0,.13,0,.16,0,0-.18.05-.18,0-.18.18,0,.15.18.18.16,0,.18,0,0,.06,0,.16a.2.2,0,0,1,0,.09s0,0-.15.09l-.13.06s-.05.08,0,.17a.15.15,0,0,0,.06.11s0,0,.19,0,.17,0,.22.13,0,.14-.13.26a.39.39,0,0,0-.11.09.14.14,0,0,0,0,.14c0,.07.06.1.1.11s0,0,.16,0,.19,0,.26.08.06.12,0,.16a.6.6,0,0,0-.1.11c-.09.09-.1.11-.1.15a.19.19,0,0,0,0,.11c0,.06.06.07.1.08s0,0,.09,0l.13-.06c.07,0,.11-.06.14,0a.7.7,0,0,1,.14.16s0,.06-.07.2-.07.14-.05.19a.29.29,0,0,0,.14.13c.05,0,.08,0,.18-.09s.12-.11.15-.11.05,0,.11,0,.11.09.11.12A.8.8,0,0,1,62,41c0,.14,0,.15,0,.2l.07.06.1,0c.06,0,.07,0,.16-.13s.11-.13.15-.13a.46.46,0,0,1,.19.08s0,.06,0,.18,0,.13,0,.15,0,0,0,.07a.19.19,0,0,0,.09.05c.13,0,.15,0,.22-.15l.07-.13s.06-.05.16,0,.14,0,.16.21a1.09,1.09,0,0,0,0,.15l0,0s0,0,.11,0,.11,0,.14,0a.88.88,0,0,0,.07-.26c0-.08,0-.1.16-.1s.15,0,.2.17l0,.14s.07.06.16,0,.1,0,.12-.06,0,0,0-.17,0-.2.14-.24.11,0,.14,0l.09.13c.07.11.07.13.1.14s.07,0,.15,0,.12-.07.07-.26,0-.16,0-.19a.49.49,0,0,1,.19-.1s.07,0,.16.12l.11.1s.09,0,.16,0,.09-.1,0-.26-.07-.15,0-.2a.7.7,0,0,1,.16-.13.12.12,0,0,1,.1,0,.55.55,0,0,0,.1.08c.09.06.1.07.13.07s.08,0,.13-.08a.28.28,0,0,0,0-.09s0-.07-.08-.16-.1-.14-.1-.17,0,0,.07-.12.07-.09.11-.09l.14,0c.17.07.2.07.26,0s0-.06,0-.1,0-.05,0-.06a.53.53,0,0,0-.11-.11l-.1-.1s0-.08,0-.17,0-.08.08-.1h0l.12,0c.15,0,.16,0,.2,0s0,0,.06-.11,0-.15,0-.18L67,38.89c-.14-.07-.15-.09-.12-.23s0-.14.22-.15.15,0,.18,0,0-.06,0-.14,0-.08,0-.1,0-.05-.17-.08-.14,0-.16-.07,0,0,0-.13,0-.11,0-.14,0,0,.16-.06.15,0,.17-.08,0,0,0-.1,0-.11,0-.14,0,0-.18,0-.19,0-.22-.15,0-.16.12-.23l.12-.07s.07-.09,0-.18,0-.09-.06-.11,0,0-.2,0l-.12,0,0,0s0,0-.08-.09,0-.14,0-.17a1.08,1.08,0,0,1,.11-.11l.1-.1a.11.11,0,0,0,0-.06s0,0,0-.1-.09-.11-.26,0l-.14.05s-.06,0-.11-.09-.07-.09-.07-.12,0-.05.1-.17.08-.12.08-.16a.28.28,0,0,0,0-.09.17.17,0,0,0-.13-.08s0,0-.13.07l-.1.07a.1.1,0,0,1-.1,0,.54.54,0,0,1-.16-.14s0-.07,0-.19.07-.2,0-.27-.12-.06-.16,0-.06.05-.11.1-.12.13-.16.12a.49.49,0,0,1-.19-.1s0-.07,0-.19,0-.17,0-.21,0,0-.1-.06a.12.12,0,0,0-.13,0s0,0-.1.14l-.09.13s-.06,0-.14,0-.14,0-.14-.24,0-.14,0-.16,0-.05-.12-.06-.14,0-.16,0a.62.62,0,0,0,0,.14c0,.17-.06.18-.2.17s-.15,0-.16-.11-.06-.25-.1-.28A.41.41,0,0,0,63.51,34.29Zm-.23,1.11a.25.25,0,0,1,.12.13l0,0v.89s-.05.07-.15.11a1.79,1.79,0,0,0-.38.22c-.09.08-.11.09-.15.09s-.05,0-.39-.21a4.12,4.12,0,0,1-.38-.24.31.31,0,0,1-.09-.17.24.24,0,0,1,0-.16,1.74,1.74,0,0,1,.24-.24,2.58,2.58,0,0,1,.88-.47A.3.3,0,0,1,63.28,35.4Zm1.24,0a2.6,2.6,0,0,1,1.07.64.25.25,0,0,1,.1.21.22.22,0,0,1,0,.11l-.06.08-.39.24c-.32.19-.35.21-.38.21s-.07,0-.14-.08a1.52,1.52,0,0,0-.43-.24.2.2,0,0,1-.11-.09,2.29,2.29,0,0,1,0-.46v-.44l0,0a.3.3,0,0,1,.17-.16A.3.3,0,0,1,64.52,35.4ZM64,37a1,1,0,0,1,.43.25,1,1,0,0,1,.28.52,1.09,1.09,0,0,1,0,.36,1,1,0,0,1-.28.52.92.92,0,0,1-.43.24,1,1,0,0,1-.38,0,1,1,0,0,1-.51-.28.93.93,0,0,1-.26-.5,1.09,1.09,0,0,1,0-.36.93.93,0,0,1,.26-.51A1,1,0,0,1,63.5,37a.93.93,0,0,1,.31,0A.88.88,0,0,1,64,37Zm-2.38.1.71.43s0,.08,0,.17a1.57,1.57,0,0,0,0,.5c0,.09,0,.12,0,.16a7.61,7.61,0,0,1-.71.44.2.2,0,0,1-.11,0,.18.18,0,0,1-.11,0,.25.25,0,0,1-.11-.12,1.41,1.41,0,0,1-.09-.37c0-.08,0-.16,0-.3a2.71,2.71,0,0,1,.06-.65c0-.15.06-.2.13-.24A.25.25,0,0,1,61.63,37.11Zm4.53,0a.23.23,0,0,1,.12.12.49.49,0,0,1,0,.14,2.61,2.61,0,0,1,0,1.18.62.62,0,0,1,0,.14.25.25,0,0,1-.2.14c-.08,0-.11,0-.49-.23s-.35-.21-.37-.24,0-.08,0-.19a1.55,1.55,0,0,0,0-.43c0-.11,0-.14,0-.18s0-.05.37-.24L66,37.1A.23.23,0,0,1,66.16,37.11ZM62.8,39l.09.07a1.48,1.48,0,0,0,.38.23c.1,0,.14.07.15.11v.89l0,0a.23.23,0,0,1-.21.16l-.14,0a2.61,2.61,0,0,1-.88-.48,1.35,1.35,0,0,1-.24-.23.28.28,0,0,1,0-.17.4.4,0,0,1,.09-.17l.38-.23c.34-.2.35-.21.39-.21Zm2.42.2.39.24.06.08a.2.2,0,0,1,0,.11.26.26,0,0,1-.1.21,2.68,2.68,0,0,1-1.1.65.25.25,0,0,1-.19,0,.35.35,0,0,1-.13-.14l0-.05V39.9a2.29,2.29,0,0,1,0-.46.2.2,0,0,1,.11-.09,1.56,1.56,0,0,0,.43-.25c.07-.06.09-.07.14-.07S64.89,39,65.22,39.24Z" transform="translate(-15.16 -2.79)"/>
  </g>
  <g id="sm-gear">
    <path class="cls-7" d="M69.94,34.59s0,0,0,0a.77.77,0,0,0,0,.1c0,.11,0,.12-.11.13s-.09,0-.14-.1,0-.1-.08-.11H69.5s0,0-.06,0,0,0,0,.05a.39.39,0,0,0,0,.09c0,.08,0,.1,0,.12a.26.26,0,0,1-.12,0s-.05,0-.1-.08-.06-.09-.1-.09,0,0-.07,0l0,0s0,0,0,.13a.43.43,0,0,1,0,.1s0,.05-.07.08,0,0-.07,0,0,0-.1-.06-.08-.07-.11-.06-.08,0-.1.08,0,.05,0,.12.06.1,0,.13a.29.29,0,0,1-.11.11s0,0-.08,0l-.08,0s0,0-.06,0,0,0-.06.05,0,0,0,.07,0,0,.07.1l.06.07s0,.05,0,.1-.06.08-.17,0-.09,0-.11,0A.14.14,0,0,0,68,36a.1.1,0,0,0,0,.09l.08.06c.07.06.08.07.09.09a.37.37,0,0,1,0,.08c0,.09,0,.09-.15.08h-.12s0,0,0,.07,0,.09,0,.11l.09,0c.08,0,.09,0,.1.06v.06a.19.19,0,0,1,0,.1s0,0-.12,0-.12,0-.12.12,0,.09.12.11.1,0,.12,0a.16.16,0,0,1,0,.1v.06s0,0-.1.06l-.09,0a.14.14,0,0,0,0,.12s0,.06,0,.07,0,0,.12,0,.12,0,.15.09,0,.09-.08.16l-.08.06A.1.1,0,0,0,68,38a.14.14,0,0,0,.06.08l.11,0c.11,0,.12,0,.17.05s0,.07,0,.1l-.06.07c-.06.06-.07.07-.07.1a.13.13,0,0,0,0,.07s0,.05.06.05,0,0,.06,0l.08,0s.07,0,.1,0l.09.11s0,0,0,.12,0,.1,0,.13a.25.25,0,0,0,.1.08s0,0,.11-.06.08-.07.1-.07,0,0,.07,0,.07.05.07.08a.42.42,0,0,1,0,.09C69,39,69,39,69,39l0,0a.1.1,0,0,0,.07,0s0,0,.1-.08.07-.09.1-.09a.27.27,0,0,1,.12.06s0,0,0,.11a.46.46,0,0,0,0,.1.06.06,0,0,0,0,0,.1.1,0,0,0,.06,0c.08,0,.09,0,.14-.1l0-.09s0,0,.1,0,.1,0,.11.13a.77.77,0,0,0,0,.1l0,0,.07,0c.06,0,.07,0,.09,0a.5.5,0,0,0,0-.16s0-.06.11-.07.1,0,.13.11l0,.09s0,0,.1,0,.07,0,.08,0,0,0,0-.11,0-.13.09-.15.08,0,.1,0l0,.08c.05.07.05.08.07.09a.1.1,0,0,0,.09,0c.08,0,.08-.05,0-.17s0-.1,0-.12a.29.29,0,0,1,.12-.07s0,0,.11.08l.07.06s0,0,.1,0,.06-.06,0-.17,0-.1,0-.12a.48.48,0,0,1,.11-.09.07.07,0,0,1,.06,0s0,0,.07.05.06,0,.08,0,0,0,.08,0l0-.05s0,0,0-.11-.06-.09-.06-.11,0,0,0-.08,0-.06.07-.06l.09,0c.11,0,.13,0,.18,0s0,0,0-.06,0,0,0,0,0,0-.07-.07L72,38s0-.05,0-.11,0-.05,0-.06h.1c.09,0,.1,0,.12,0s0,0,0-.07,0-.09,0-.12l-.07,0c-.09-.05-.1-.06-.08-.15s0-.09.15-.09.09,0,.11,0,0,0,0-.09,0-.05,0-.06,0,0-.11,0l-.1,0s0,0,0-.09,0-.07,0-.09,0,0,.1,0,.09,0,.11,0,0,0,0-.07,0-.07,0-.09a.18.18,0,0,0-.11,0c-.12,0-.13,0-.15-.1s0-.1.08-.14l.07,0s0-.06,0-.11,0-.06,0-.07,0,0-.12,0l-.08,0h0s0,0,0-.07S72,36,72,36l.07-.06s.06-.06.06-.07,0,0,0,0a.41.41,0,0,0,0-.07c0-.06-.07-.07-.18,0l-.09,0s0,0-.07-.06,0-.05,0-.07,0,0,.06-.11.06-.08,0-.11,0,0,0-.05,0-.06-.08-.06,0,0-.08,0l-.07,0h-.06a.48.48,0,0,1-.11-.09s0,0,0-.13,0-.13,0-.17-.07,0-.1,0l-.07.07c-.06.07-.08.08-.11.08L71,35s0,0,0-.12,0-.11,0-.13,0,0-.07,0,0,0-.08,0,0,0-.07.09l0,.08s0,0-.1,0-.09,0-.09-.16,0-.09,0-.1,0,0-.08,0-.08,0-.1,0a.45.45,0,0,0,0,.08c0,.12,0,.12-.13.12s-.09,0-.11-.07,0-.17-.06-.18A.24.24,0,0,0,69.94,34.59Zm-.15.72a.2.2,0,0,1,.08.08V36s0,0-.09.08a.77.77,0,0,0-.25.14c-.06,0-.07.06-.1.06s0,0-.25-.14L68.94,36a.19.19,0,0,1,0-.11.15.15,0,0,1,0-.11l.15-.15a1.84,1.84,0,0,1,.57-.3C69.71,35.28,69.75,35.28,69.79,35.31Zm.8,0a1.52,1.52,0,0,1,.69.41c0,.05.07.08.07.13s0,0,0,.07l0,.06-.25.15c-.2.13-.22.14-.24.14s0,0-.09-.05a.88.88,0,0,0-.28-.16.11.11,0,0,1-.07-.06s0,0,0-.3v-.3a.22.22,0,0,1,.12-.11A.26.26,0,0,1,70.59,35.31Zm-.33,1a.61.61,0,0,1,.28.16.63.63,0,0,1,.18.33.88.88,0,0,1,0,.23.66.66,0,0,1-.18.34.61.61,0,0,1-.28.16,1,1,0,0,1-.24,0,.67.67,0,0,1-.33-.18.62.62,0,0,1-.17-.33.88.88,0,0,1,0-.23.62.62,0,0,1,.17-.32.54.54,0,0,1,.24-.16.64.64,0,0,1,.2,0Zm-1.54.06a4.64,4.64,0,0,1,.46.28s0,.05,0,.11,0,.07,0,.16,0,.12,0,.16,0,.08,0,.11l-.47.28h-.14a.18.18,0,0,1-.07-.08,1.59,1.59,0,0,1-.05-.24s0-.1,0-.19a1.82,1.82,0,0,1,0-.42c0-.1,0-.13.09-.16A.16.16,0,0,1,68.72,36.41Zm2.93,0s.06.05.08.07a.87.87,0,0,1,0,.1,1.63,1.63,0,0,1,0,.76.41.41,0,0,1,0,.09.15.15,0,0,1-.13.09s-.07,0-.32-.15a1.14,1.14,0,0,1-.24-.15.23.23,0,0,1,0-.12,1.31,1.31,0,0,0,0-.28.23.23,0,0,1,0-.12,1.14,1.14,0,0,1,.24-.15l.25-.15A.16.16,0,0,1,71.65,36.41Zm-2.17,1.25.06,0a.79.79,0,0,0,.25.15c.06,0,.08,0,.09.07v.6a.19.19,0,0,1-.14.11l-.09,0a1.67,1.67,0,0,1-.57-.31.69.69,0,0,1-.15-.15.13.13,0,0,1,0-.1.15.15,0,0,1,.06-.11l.24-.16c.22-.12.23-.13.25-.13Zm1.56.12a1.51,1.51,0,0,1,.25.16.1.1,0,0,1,0,.05.1.1,0,0,1,0,.07.17.17,0,0,1-.07.14,1.77,1.77,0,0,1-.71.42.16.16,0,0,1-.12,0,.16.16,0,0,1-.09-.09v-.31c0-.27,0-.28,0-.3a.13.13,0,0,1,.07,0,1.56,1.56,0,0,0,.28-.16s.06-.05.09-.05S70.83,37.66,71,37.78Z" transform="translate(-15.16 -2.79)"/>
  </g>
  <g id="md-gear">
    <path class="cls-7" d="M67.85,37a.07.07,0,0,0,0,.05l0,.11c0,.13,0,.14-.12.15s-.1,0-.16-.11-.06-.12-.1-.13h-.07s0,0-.06,0,0,0,0,0,0,.07,0,.11,0,.11,0,.14a.67.67,0,0,1-.15.06s0,0-.11-.1-.08-.1-.12-.1l-.07,0s0,0,0,0,0,0,0,.15a.45.45,0,0,1,0,.11s0,.06-.08.1,0,0-.07,0,0,0-.12-.07-.09-.08-.13-.07a.24.24,0,0,0-.11.09s0,.06,0,.15.07.11.05.14-.09.12-.11.12,0,0-.1,0l-.1,0s0,0-.06,0,0,0-.07.06,0,.05,0,.08,0,.05.08.12l.07.08s0,0,0,.12-.06.09-.19.05l-.12,0s0,0-.07.09,0,.08,0,.1l.08.07c.09.06.1.07.11.1s0,0,0,.09,0,.1-.16.1-.12,0-.14,0a.1.1,0,0,0,0,.08c0,.06,0,.11,0,.13l.09,0c.1,0,.11,0,.12.07s0,0,0,.07a.24.24,0,0,1,0,.11s0,0-.14,0-.14,0-.14.14,0,.11.14.13.12,0,.14,0a.39.39,0,0,1,0,.12.13.13,0,0,1,0,.07s0,0-.12.06l-.09,0a.15.15,0,0,0,0,.14.16.16,0,0,0,0,.08h.14c.13,0,.13,0,.16.1s0,.11-.09.19l-.08.07s0,.06,0,.11,0,.07.07.08,0,0,.12,0,.14,0,.19.06,0,.08,0,.11l-.07.08c-.07.08-.08.09-.08.12a.1.1,0,0,0,0,.08c0,.05,0,.05.07.06s0,0,.06,0l.1-.05c.06,0,.08,0,.11,0s.1.1.1.12,0,0-.05.15-.06.1,0,.14a.19.19,0,0,0,.11.09s0,0,.13-.06.09-.08.12-.08,0,0,.07,0,.08.06.08.09a.45.45,0,0,1,0,.11c0,.11,0,.12,0,.15l0,0,.07,0s.06,0,.12-.1.08-.1.11-.1a.41.41,0,0,1,.15.07s0,0,0,.13a1,1,0,0,1,0,.11s0,0,0,0,0,0,.06,0,.11,0,.17-.11a.43.43,0,0,1,0-.1s0,0,.11,0,.11,0,.13.16a1,1,0,0,0,0,.11l0,0s0,0,.08,0,.08,0,.1,0a1.22,1.22,0,0,0,0-.19c0-.06,0-.08.12-.08s.11,0,.15.13a.64.64,0,0,0,0,.1s.05,0,.12,0a.11.11,0,0,0,.09,0s0,0,0-.13,0-.15.1-.18h.11l.07.1c.05.08.05.09.07.1s.06,0,.11,0,.09,0,.06-.2,0-.11,0-.14a.69.69,0,0,1,.15-.07s0,0,.12.09l.08.07s.06,0,.12,0,.07-.08,0-.2,0-.11,0-.15a.4.4,0,0,1,.12-.1.07.07,0,0,1,.07,0l.08.05c.06,0,.07,0,.09,0s.06,0,.1-.06,0,0,0-.06,0-.05,0-.13-.08-.09-.08-.12,0,0,0-.09.06-.07.09-.07l.1,0c.13.05.15.05.2,0a.36.36,0,0,0,0-.07.2.2,0,0,0,0-.05.57.57,0,0,0-.08-.08l-.08-.08s0-.05,0-.12,0-.06.05-.07l0,0,.09,0c.11,0,.12,0,.14,0a.1.1,0,0,0,0-.08c0-.07,0-.11,0-.14l-.1-.05c-.1,0-.1-.07-.08-.17s0-.11.17-.11.11,0,.13,0,0,0,0-.1,0-.06,0-.08,0,0-.13-.06-.1,0-.12,0a.22.22,0,0,1,0-.1c0-.07,0-.09,0-.1s0,0,.12,0,.11,0,.13-.06,0,0,0-.08,0-.08,0-.1,0,0-.13,0-.15,0-.17-.11,0-.11.08-.17l.1,0s0-.07,0-.14,0-.06,0-.07,0,0-.14,0l-.09,0h0a.13.13,0,0,1-.05-.08c0-.07,0-.1,0-.12l.08-.08a.57.57,0,0,0,.08-.08.2.2,0,0,0,0,0l0-.07c0-.08-.07-.08-.2,0l-.1,0s0,0-.09-.07,0-.06,0-.09,0,0,.08-.12.06-.09,0-.13a.15.15,0,0,0,0-.06s-.07-.06-.1-.06,0,0-.09.05l-.08.06a.09.09,0,0,1-.07,0,.4.4,0,0,1-.12-.1s0-.06,0-.15.06-.15,0-.2-.09,0-.12,0l-.08.08c-.07.07-.09.09-.12.09l-.15-.08s0-.05,0-.14,0-.13,0-.15,0,0-.08-.05-.07,0-.1,0,0,0-.07.1-.06.1-.07.1,0,0-.11,0-.1,0-.1-.18,0-.11,0-.12a.11.11,0,0,0-.09,0q-.1,0-.12,0s0,.06,0,.1,0,.14-.15.13-.11,0-.12-.08S68,37,68,37,67.87,37,67.85,37Zm-.17.83a.15.15,0,0,1,.09.1l0,0v.66s0,.06-.11.09a.85.85,0,0,0-.29.17c-.06,0-.08.06-.11.06s0,0-.29-.16l-.28-.17a.33.33,0,0,1-.07-.13.31.31,0,0,1,0-.13l.18-.17a2,2,0,0,1,.66-.35A.17.17,0,0,1,67.68,37.8Zm.93,0a1.89,1.89,0,0,1,.8.48.17.17,0,0,1,.07.15.11.11,0,0,1,0,.08s0,.05,0,.06l-.29.18c-.24.15-.26.16-.28.16s-.06,0-.11-.06a1.09,1.09,0,0,0-.31-.18.17.17,0,0,1-.09-.07s0,0,0-.34v-.33l0,0a.22.22,0,0,1,.13-.12A.23.23,0,0,1,68.61,37.8ZM68.23,39a.68.68,0,0,1,.32.18.83.83,0,0,1,.21.39,1.22,1.22,0,0,1,0,.27.78.78,0,0,1-.21.39.68.68,0,0,1-.32.18.66.66,0,0,1-.28,0,.67.67,0,0,1-.39-.2.76.76,0,0,1-.19-.38.61.61,0,0,1,0-.27.76.76,0,0,1,.19-.38.72.72,0,0,1,.29-.17.53.53,0,0,1,.23,0Zm-1.78.07.53.32s0,.06,0,.13,0,.09,0,.19,0,.14,0,.18A.13.13,0,0,1,67,40l-.54.32-.08,0-.08,0a.2.2,0,0,1-.09-.09s0-.17-.06-.27a2.81,2.81,0,0,1,0-.71c0-.12,0-.15.1-.19A.22.22,0,0,1,66.45,39.07Zm3.38,0a.19.19,0,0,1,.09.09.39.39,0,0,1,0,.11,1.87,1.87,0,0,1,0,.88.41.41,0,0,1,0,.1.18.18,0,0,1-.15.11c-.06,0-.08,0-.37-.18s-.26-.15-.27-.18,0,0,0-.13a.86.86,0,0,0,0-.32c0-.09,0-.11,0-.14s0,0,.27-.18a1.86,1.86,0,0,1,.3-.16A.15.15,0,0,1,69.83,39.07Zm-2.51,1.45.07,0a1.38,1.38,0,0,0,.29.17c.07,0,.1,0,.11.08v.66l0,0a.18.18,0,0,1-.15.12h-.11a2.24,2.24,0,0,1-.66-.36,1.59,1.59,0,0,1-.18-.17.31.31,0,0,1,0-.13.24.24,0,0,1,.07-.12,1.68,1.68,0,0,1,.28-.18c.25-.15.26-.15.29-.15Zm1.81.14.29.18a.21.21,0,0,1,0,.06.11.11,0,0,1,0,.08.19.19,0,0,1-.07.16,1.9,1.9,0,0,1-.82.48.17.17,0,0,1-.24-.11l0,0v-.33c0-.31,0-.32,0-.34a.17.17,0,0,1,.09-.07.9.9,0,0,0,.31-.18c.06-.05.07-.05.11-.05S68.89,40.51,69.13,40.66Z" transform="translate(-15.16 -2.79)"/>
  </g>
  <circle id="btn-one" class="cls-5" cx="18.18" cy="35.31" r="1.97"/>
  <circle id="btn-two" class="cls-5" cx="23.37" cy="35.31" r="1.97"/>
  <circle id="btn-three" class="cls-5" cx="28.62" cy="35.31" r="1.97"/>
</svg>
